<svg width="56" height="56" viewBox="0 0 56 56" fill="none" xmlns="http://www.w3.org/2000/svg">
<circle cx="28" cy="28" r="28" fill="#FFF4F4"/>
<path d="M29.0313 16.954C28.6277 16.191 27.3723 16.191 26.9687 16.954L16.4687 36.7873C16.3742 36.9651 16.3273 37.1643 16.3327 37.3655C16.338 37.5668 16.3954 37.7632 16.4993 37.9357C16.6032 38.1082 16.7499 38.2508 16.9253 38.3497C17.1007 38.4486 17.2987 38.5004 17.5 38.5H38.5C38.7012 38.5004 38.8991 38.4487 39.0743 38.3498C39.2496 38.251 39.3962 38.1085 39.5 37.9361C39.6037 37.7637 39.6611 37.5674 39.6663 37.3662C39.6716 37.1651 39.6247 36.9661 39.5302 36.7885L29.0313 16.954ZM29.1667 35H26.8333V32.6666H29.1667V35ZM26.8333 30.3333V24.5H29.1667L29.1678 30.3333H26.8333Z" fill="#CA222D"/>
</svg>
