<svg width="56" height="56" viewBox="0 0 56 56" fill="none" xmlns="http://www.w3.org/2000/svg">
<circle cx="28" cy="28" r="28" fill="#EDF6FC"/>
<path d="M36.9763 26.964C36.4665 22.9483 33.0283 19.8333 28.875 19.8333C25.6597 19.8333 22.8667 21.7128 21.5915 24.675C19.0855 25.424 17.2083 27.79 17.2083 30.3333C17.2083 33.5498 19.8252 36.1667 23.0417 36.1667H35.875C38.4487 36.1667 40.5417 34.0737 40.5417 31.5C40.5399 30.4542 40.1877 29.4392 39.5415 28.617C38.8952 27.7948 37.9921 27.2128 36.9763 26.964V26.964ZM30.0417 30.3333V33.8333H27.7083V30.3333H24.2083L28.875 24.5L33.5417 30.3333H30.0417Z" fill="#007CBD"/>
</svg>
