<svg width="56" height="56" viewBox="0 0 56 56" fill="none" xmlns="http://www.w3.org/2000/svg">
<g clip-path="url(#clip0_225_9995)">
<path fill-rule="evenodd" clip-rule="evenodd" d="M42 0V9.33333H51.3333L42 0Z" fill="#98A2B3"/>
<rect x="2.33334" y="23.3333" width="51.3333" height="23.3333" rx="2.75" fill="#CA222D"/>
<path d="M11.5947 41.5V28.025H16.5997C17.5494 28.025 18.39 28.2175 19.1215 28.6025C19.853 28.9747 20.424 29.5008 20.8347 30.181C21.2454 30.8483 21.4507 31.6247 21.4507 32.5102C21.4507 33.3829 21.2518 34.1593 20.854 34.8395C20.4561 35.5197 19.9107 36.0587 19.2177 36.4565C18.5247 36.8415 17.7226 37.034 16.8115 37.034H14.232V41.5H11.5947ZM14.232 34.6085H16.7537C17.344 34.6085 17.8253 34.416 18.1975 34.031C18.5825 33.6332 18.775 33.1262 18.775 32.5102C18.775 31.8942 18.5632 31.3937 18.1397 31.0087C17.729 30.6237 17.1965 30.4312 16.542 30.4312H14.232V34.6085ZM23.1936 41.5V28.025H27.5056C28.8788 28.025 30.0915 28.3137 31.1438 28.8912C32.209 29.4687 33.0368 30.2644 33.6271 31.2782C34.2303 32.2792 34.5318 33.4407 34.5318 34.7625C34.5318 36.0715 34.2303 37.2329 33.6271 38.2467C33.0368 39.2606 32.209 40.0562 31.1438 40.6337C30.0915 41.2112 28.8788 41.5 27.5056 41.5H23.1936ZM25.8308 39.036H27.5056C28.1216 39.036 28.6927 38.9269 29.2188 38.7087C29.745 38.4906 30.2006 38.189 30.5856 37.804C30.9834 37.419 31.2914 36.9698 31.5096 36.4565C31.7278 35.9303 31.8368 35.3657 31.8368 34.7625C31.8368 34.1593 31.7278 33.6011 31.5096 33.0877C31.2914 32.5616 30.9834 32.106 30.5856 31.721C30.2006 31.336 29.745 31.0344 29.2188 30.8162C28.6927 30.5981 28.1216 30.489 27.5056 30.489H25.8308V39.036ZM36.6724 41.5V28.025H45.3156V30.4312H39.3096V33.6652H44.3146V36.0715H39.3096V41.5H36.6724Z" fill="white"/>
</g>
<defs>
<clipPath id="clip0_225_9995">
<rect width="56" height="56" fill="white"/>
</clipPath>
</defs>
</svg>
