<svg width="90" height="74" viewBox="0 0 90 74" fill="none" xmlns="http://www.w3.org/2000/svg">
<g clip-path="url(#clip0_3436_1606)">
<path d="M40.1586 2.88577V40H22.9946V0.0128257L49.5341 0C59.6952 0 63.8219 6.00561 63.8219 12.0048C63.8219 15.7339 61.8628 19.3764 58.8904 21.4285C61.7986 28.6301 62.5425 30.1146 67.0027 39.9968H48.0848L43.9357 27.806L50.9674 35.806L46.1 26.2573L55.1838 31.9455L47.482 24.4938L57.9189 26.9242L48.2163 22.3743L58.3165 21.3547L48.2195 20.1331L57.9477 15.6409L47.498 18.0104L55.2383 10.6036L46.1289 16.2373L51.0443 6.71743L44.2532 15.006L45.8115 4.40561L42.0824 14.4481L40.1586 2.88577Z" fill="#178FCF"/>
</g>
<path d="M20.955 58V51H22.195L24.395 54.24L26.575 51H27.825V58H26.665V52.83L24.385 56.2L22.115 52.85V58H20.955ZM30.4804 58V51H34.7904V52.06H31.6404V53.92H34.4204V54.96H31.6404V56.94H34.8204V58H30.4804ZM37.3788 58V51H38.6188L40.8188 54.24L42.9988 51H44.2488V58H43.0888V52.83L40.8088 56.2L38.5388 52.85V58H37.3788ZM46.9042 58V51H49.2142C49.6942 51 50.1076 51.0733 50.4542 51.22C50.8076 51.3667 51.0809 51.5867 51.2742 51.88C51.4676 52.1667 51.5642 52.5267 51.5642 52.96C51.5642 53.26 51.4909 53.53 51.3442 53.77C51.2042 54.01 51.0042 54.21 50.7442 54.37C51.0842 54.5367 51.3442 54.76 51.5242 55.04C51.7042 55.32 51.7942 55.6533 51.7942 56.04C51.7942 56.4533 51.7009 56.8067 51.5142 57.1C51.3276 57.3933 51.0642 57.6167 50.7242 57.77C50.3842 57.9233 49.9809 58 49.5142 58H46.9042ZM48.0442 56.96H49.4242C49.7909 56.96 50.0809 56.87 50.2942 56.69C50.5076 56.51 50.6142 56.2667 50.6142 55.96C50.6142 55.6267 50.4942 55.3667 50.2542 55.18C50.0209 54.9933 49.6909 54.9 49.2642 54.9H48.0442V56.96ZM48.0442 53.94H49.3142C49.6476 53.94 49.9076 53.8533 50.0942 53.68C50.2876 53.5 50.3842 53.2533 50.3842 52.94C50.3842 52.62 50.2742 52.3767 50.0542 52.21C49.8409 52.0367 49.5409 51.95 49.1542 51.95H48.0442V53.94ZM54.0273 58V51H58.3373V52.06H55.1873V53.92H57.9673V54.96H55.1873V56.94H58.3673V58H54.0273ZM60.9257 58V51H63.3957C63.8757 51 64.299 51.0933 64.6657 51.28C65.0324 51.4667 65.319 51.7267 65.5257 52.06C65.7324 52.3867 65.8357 52.7667 65.8357 53.2C65.8357 53.66 65.709 54.0667 65.4557 54.42C65.2024 54.7667 64.869 55.0233 64.4557 55.19L66.1157 58H64.8057L63.3057 55.41C63.2657 55.4167 63.2224 55.42 63.1757 55.42C63.1357 55.42 63.0924 55.42 63.0457 55.42H62.0857V58H60.9257ZM62.0857 54.35H63.4457C63.6724 54.35 63.8724 54.3 64.0457 54.2C64.2257 54.1 64.369 53.9633 64.4757 53.79C64.589 53.6167 64.6457 53.42 64.6457 53.2C64.6457 52.8667 64.5257 52.5933 64.2857 52.38C64.0457 52.1667 63.7357 52.06 63.3557 52.06H62.0857V54.35ZM23.2135 71.12C22.5402 71.12 21.9402 70.9667 21.4135 70.66C20.8935 70.3467 20.4835 69.92 20.1835 69.38C19.8902 68.8333 19.7435 68.2067 19.7435 67.5C19.7435 66.7933 19.8902 66.17 20.1835 65.63C20.4835 65.0833 20.8935 64.6567 21.4135 64.35C21.9335 64.0367 22.5302 63.88 23.2035 63.88C23.6568 63.88 24.0835 63.9633 24.4835 64.13C24.8835 64.29 25.2368 64.5133 25.5435 64.8C25.8568 65.0867 26.0968 65.42 26.2635 65.8L25.2035 66.23C25.0835 65.9767 24.9202 65.7533 24.7135 65.56C24.5135 65.36 24.2835 65.2067 24.0235 65.1C23.7635 64.9933 23.4902 64.94 23.2035 64.94C22.7635 64.94 22.3702 65.05 22.0235 65.27C21.6835 65.49 21.4135 65.7933 21.2135 66.18C21.0202 66.56 20.9235 67 20.9235 67.5C20.9235 68 21.0202 68.4433 21.2135 68.83C21.4135 69.2167 21.6868 69.52 22.0335 69.74C22.3868 69.96 22.7868 70.07 23.2335 70.07C23.5268 70.07 23.8002 70.0133 24.0535 69.9C24.3135 69.78 24.5435 69.6167 24.7435 69.41C24.9502 69.2033 25.1135 68.9633 25.2335 68.69L26.2935 69.12C26.1268 69.5133 25.8902 69.8633 25.5835 70.17C25.2768 70.47 24.9202 70.7033 24.5135 70.87C24.1068 71.0367 23.6735 71.12 23.2135 71.12ZM28.4101 71V64H32.7201V65.06H29.5701V66.92H32.3501V67.96H29.5701V69.94H32.7501V71H28.4101ZM35.3085 71V64H36.5085L40.2285 69.06V64H41.3885V71H40.2285L36.4685 65.88V71H35.3085ZM45.5027 71V65.06H43.3527V64H48.8127V65.06H46.6627V71H45.5027ZM50.7753 71V64H53.2453C53.7253 64 54.1486 64.0933 54.5153 64.28C54.882 64.4667 55.1686 64.7267 55.3753 65.06C55.582 65.3867 55.6853 65.7667 55.6853 66.2C55.6853 66.66 55.5586 67.0667 55.3053 67.42C55.052 67.7667 54.7186 68.0233 54.3053 68.19L55.9653 71H54.6553L53.1553 68.41C53.1153 68.4167 53.072 68.42 53.0253 68.42C52.9853 68.42 52.942 68.42 52.8953 68.42H51.9353V71H50.7753ZM51.9353 67.35H53.2953C53.522 67.35 53.722 67.3 53.8953 67.2C54.0753 67.1 54.2186 66.9633 54.3253 66.79C54.4386 66.6167 54.4953 66.42 54.4953 66.2C54.4953 65.8667 54.3753 65.5933 54.1353 65.38C53.8953 65.1667 53.5853 65.06 53.2053 65.06H51.9353V67.35ZM57.4416 71L60.2316 64H61.4616L64.2616 71H63.0316L62.3416 69.28H59.3516L58.6716 71H57.4416ZM59.7416 68.25H61.9516L60.8516 65.45L59.7416 68.25ZM66.1738 71V64H67.3338V69.94H70.5038V71H66.1738Z" fill="white"/>
<defs>
<clipPath id="clip0_3436_1606">
<rect width="44.0112" height="40" fill="white" transform="translate(22.9946)"/>
</clipPath>
</defs>
</svg>
