<svg width="12" height="12" viewBox="0 0 12 12" fill="none" xmlns="http://www.w3.org/2000/svg">
<g clip-path="url(#clip0_3488_3401)">
<path fill-rule="evenodd" clip-rule="evenodd" d="M3.12548 0.0440586C3.05701 0.015669 2.98194 0 2.90321 0C2.82448 0 2.74941 0.015669 2.68095 0.0440586C2.61247 0.072394 2.54831 0.114397 2.49264 0.170067L0.557152 2.10555C0.330396 2.33231 0.330396 2.69995 0.557152 2.92671C0.783908 3.15346 1.15155 3.15346 1.37831 2.92671L2.32257 1.98245V11.4194C2.32257 11.74 2.58253 12 2.90321 12C3.2239 12 3.48386 11.74 3.48386 11.4194V1.98245L4.42812 2.92671C4.65488 3.15346 5.02252 3.15346 5.24928 2.92671C5.47603 2.69995 5.47603 2.33231 5.24928 2.10555L3.31379 0.170067C3.25812 0.114397 3.19396 0.072394 3.12548 0.0440586ZM6.7507 9.07329C6.97746 8.84654 7.3451 8.84654 7.57186 9.07329L8.51612 10.0176V0.580645C8.51612 0.259964 8.77608 0 9.09676 0C9.41744 0 9.67741 0.259964 9.67741 0.580645V10.0176L10.6217 9.07329C10.8484 8.84654 11.2161 8.84654 11.4428 9.07329C11.6696 9.30005 11.6696 9.66769 11.4428 9.89445L9.50734 11.8299C9.45167 11.8856 9.38751 11.9276 9.31902 11.9559C9.25056 11.9843 9.17549 12 9.09676 12C9.01803 12 8.94296 11.9843 8.8745 11.9559C8.80602 11.9276 8.74185 11.8856 8.68618 11.8299L6.7507 9.89445C6.52394 9.66769 6.52394 9.30005 6.7507 9.07329Z" fill="white"/>
</g>
<defs>
<clipPath id="clip0_3488_3401">
<rect width="12" height="12" fill="white"/>
</clipPath>
</defs>
</svg>
